<?xml version="1.0" encoding="UTF-8" standalone="no"?>
<svg width="159px" height="45px" viewBox="0 0 159 45" version="1.1" xmlns="http://www.w3.org/2000/svg" xmlns:xlink="http://www.w3.org/1999/xlink">
    <!-- Generator: Sketch 3.7 (28169) - http://www.bohemiancoding.com/sketch -->
    <title>Group 3</title>
    <desc>Created with Sketch.</desc>
    <defs>
        <linearGradient x1="56.4002893%" y1="4.55062898%" x2="50.8913397%" y2="29.7747166%" id="linearGradient-1">
            <stop stop-color="#FFFFFF" offset="0.43%"></stop>
            <stop stop-color="#EF005C" offset="100%"></stop>
        </linearGradient>
        <linearGradient x1="4.55445545%" y1="43.5971795%" x2="29.7780648%" y2="49.1061291%" id="linearGradient-2">
            <stop stop-color="#FFFFFF" offset="0.43%"></stop>
            <stop stop-color="#FF9D00" offset="100%"></stop>
        </linearGradient>
        <linearGradient x1="95.4531975%" y1="56.4046285%" x2="70.2291099%" y2="50.8956789%" id="linearGradient-3">
            <stop stop-color="#FFFFFF" offset="0.43%"></stop>
            <stop stop-color="#00C3FF" offset="100%"></stop>
        </linearGradient>
        <linearGradient x1="43.5982643%" y1="95.451545%" x2="49.1072139%" y2="70.2252942%" id="linearGradient-4">
            <stop stop-color="#FFFFFF" offset="0.43%"></stop>
            <stop stop-color="#3E8E00" offset="100%"></stop>
        </linearGradient>
    </defs>
    <g id="Page-1" stroke="none" stroke-width="1" fill="none" fill-rule="evenodd">
        <g id="Group-3">
            <g id="Group-2">
                <g id="Group">
                    <g id="Shape">
                        <path d="M31.794,1.988 C28.974,0.715 25.847,0 22.551,0 C19.255,0 16.128,0.715 13.308,1.988 C16.563,2.991 19.657,4.361 22.551,6.035 C29.377,9.986 35.066,15.674 39.016,22.5 C40.691,19.605 42.061,16.513 43.064,13.257 C40.809,8.263 36.788,4.242 31.794,1.988 L31.794,1.988 Z" fill="#EF005C"></path>
                        <path d="M13.308,1.988 C8.314,4.242 4.292,8.263 2.038,13.258 C0.765,16.078 0.051,19.205 0.051,22.501 C0.051,25.797 0.765,28.924 2.038,31.745 C3.04,28.489 4.411,25.396 6.086,22.501 C10.037,15.675 15.725,9.986 22.551,6.036 C19.657,4.36 16.563,2.991 13.308,1.988 L13.308,1.988 Z" fill="#FF9D00"></path>
                        <path d="M43.064,13.257 C42.061,16.513 40.691,19.605 39.016,22.5 C35.066,29.326 29.377,35.015 22.551,38.966 C25.445,40.64 28.538,42.009 31.794,43.013 C36.788,40.759 40.809,36.738 43.064,31.743 C44.337,28.923 45.051,25.796 45.051,22.499 C45.051,19.205 44.337,16.078 43.064,13.257 L43.064,13.257 Z" fill="#00C3FF"></path>
                        <path d="M39.005,21.439 C35.034,14.888 29.454,9.416 22.817,5.575 C20.265,4.097 17.587,2.873 14.841,1.928 C17.305,1.001 19.893,0.532 22.551,0.532 C25.687,0.532 28.723,1.184 31.576,2.472 C36.404,4.651 40.274,8.489 42.496,13.293 C41.62,16.091 40.448,18.826 39.005,21.439 L39.005,21.439 Z" fill="url(#linearGradient-1)" opacity="0.5"></path>
                        <path d="M21.49,6.046 C14.938,10.016 9.466,15.597 5.626,22.234 C4.148,24.787 2.924,27.464 1.98,30.211 C1.052,27.746 0.583,25.16 0.583,22.501 C0.583,19.365 1.235,16.329 2.523,13.476 C4.702,8.648 8.54,4.777 13.344,2.556 C16.142,3.432 18.877,4.604 21.49,6.046 L21.49,6.046 Z" fill="url(#linearGradient-2)" opacity="0.5"></path>
                        <path d="M23.612,38.955 C30.164,34.984 35.636,29.404 39.476,22.767 C40.953,20.214 42.178,17.537 43.122,14.79 C44.05,17.254 44.519,19.842 44.519,22.5 C44.519,25.636 43.867,28.671 42.579,31.525 C40.4,36.353 36.562,40.224 31.757,42.445 C28.96,41.568 26.226,40.396 23.612,38.955 L23.612,38.955 Z" fill="url(#linearGradient-3)" opacity="0.5"></path>
                        <path d="M22.551,38.967 C15.725,35.016 10.037,29.326 6.086,22.5 C4.411,25.395 3.041,28.488 2.038,31.744 C4.292,36.738 8.314,40.76 13.308,43.014 C16.128,44.287 19.255,45 22.551,45 C25.847,45 28.973,44.287 31.794,43.014 C28.539,42.01 25.445,40.641 22.551,38.967 L22.551,38.967 Z" fill="#3E8E00"></path>
                        <path d="M6.097,23.562 C10.067,30.114 15.648,35.584 22.285,39.426 C24.838,40.903 27.515,42.127 30.261,43.072 C27.798,44 25.21,44.468 22.552,44.468 C19.416,44.468 16.38,43.816 13.527,42.529 C8.699,40.349 4.828,36.511 2.606,31.707 C3.482,28.91 4.654,26.176 6.097,23.562 L6.097,23.562 Z" fill="url(#linearGradient-4)" opacity="0.5"></path>
                        <path d="M6.086,22.5 C4.411,25.395 3.041,28.488 2.038,31.744 C3.626,29.213 5.467,26.89 7.489,24.761 C7.001,24.021 6.531,23.27 6.086,22.5 L6.086,22.5 Z" fill="#347000"></path>
                        <path d="M22.551,38.967 C25.445,40.641 28.538,42.01 31.794,43.014 C29.263,41.426 26.94,39.584 24.811,37.563 C24.072,38.051 23.32,38.521 22.551,38.967 L22.551,38.967 Z" fill="#00ABD3"></path>
                        <path d="M39.016,22.5 C40.691,19.606 42.061,16.513 43.064,13.257 C41.476,15.788 39.635,18.111 37.613,20.24 C38.102,20.979 38.571,21.731 39.016,22.5 L39.016,22.5 Z" fill="#C90052"></path>
                        <path d="M22.551,6.035 C19.656,4.36 16.563,2.991 13.308,1.987 C15.838,3.575 18.162,5.417 20.291,7.438 C21.03,6.95 21.782,6.48 22.551,6.035 L22.551,6.035 Z" fill="#FF7300"></path>
                        <path d="M22.551,0.532 C22.551,0.532 23.133,0.502 24.006,0.535 C24.879,0.568 26.042,0.7 27.184,0.942 C28.326,1.188 29.436,1.549 30.247,1.876 C31.058,2.203 31.576,2.471 31.576,2.471 C31.576,2.471 29.425,1.562 27.151,1.094 C24.886,0.588 22.551,0.532 22.551,0.532 L22.551,0.532 Z" fill="#FFFFFF"></path>
                        <path d="M0.583,22.5 C0.583,22.5 0.553,21.918 0.586,21.045 C0.619,20.173 0.751,19.008 0.993,17.867 C1.239,16.724 1.601,15.615 1.927,14.803 C2.255,13.992 2.523,13.475 2.523,13.475 C2.523,13.475 1.613,15.626 1.146,17.9 C0.638,20.166 0.583,22.5 0.583,22.5 L0.583,22.5 Z" fill="#FFFFFF"></path>
                        <path d="M22.551,44.469 C22.551,44.469 21.969,44.5 21.095,44.465 C20.223,44.434 19.058,44.301 17.918,44.059 C16.775,43.813 15.666,43.452 14.854,43.125 C14.042,42.795 13.526,42.529 13.526,42.529 C13.526,42.529 15.677,43.437 17.951,43.906 C20.217,44.414 22.551,44.469 22.551,44.469 L22.551,44.469 Z" fill="#FFFFFF"></path>
                        <path d="M44.52,22.5 C44.52,22.5 44.551,23.082 44.517,23.955 C44.485,24.828 44.352,25.992 44.11,27.133 C43.864,28.278 43.503,29.385 43.176,30.197 C42.849,31.008 42.581,31.525 42.581,31.525 C42.581,31.525 43.49,29.373 43.958,27.099 C44.465,24.836 44.52,22.5 44.52,22.5 L44.52,22.5 Z" fill="#FFFFFF"></path>
                    </g>
                </g>
            </g>
            <text id="CoboPhone" font-family="LucidaGrande, Lucida Grande" font-size="20" font-weight="normal" fill="#000000">
                <tspan x="49.3486328" y="28">CoboPhone</tspan>
            </text>
            <text id="Venta-y-reparación" font-family="LucidaGrande, Lucida Grande" font-size="10" font-weight="normal" fill="#999999">
                <tspan x="52.2070312" y="38">Venta y reparación</tspan>
            </text>
        </g>
    </g>
</svg>